HIERARCHY
ROOT Hips
{
	OFFSET 0.000000 0.000000 0.000000
	CHANNELS 6 Xposition Yposition Zposition Xrotation Yrotation Zrotation
	JOINT Spine
	{
		OFFSET 0.000000 0.042231 0.063346
		CHANNELS 3 Xrotation Yrotation Zrotation
		JOINT Spine1
		{
			OFFSET 0.000000 0.014667 0.083179
			CHANNELS 3 Xrotation Yrotation Zrotation
			JOINT Spine2
			{
				OFFSET 0.000000 0.007361 0.084141
				CHANNELS 3 Xrotation Yrotation Zrotation
				JOINT Spine3
				{
					OFFSET 0.000000 0.000000 0.084462
					CHANNELS 3 Xrotation Yrotation Zrotation
					JOINT Neck
					{
						OFFSET 0.000000 -0.031673 0.221713
						CHANNELS 3 Xrotation Yrotation Zrotation
						JOINT Head
						{
							OFFSET 0.000000 -0.020167 0.114371
							CHANNELS 3 Xrotation Yrotation Zrotation
							End Site
							{
								OFFSET 0.000000 0.000000 0.000000
							}
						}
					}
					JOINT RightShoulder
					{
						OFFSET -0.029161 -0.048602 0.157471
						CHANNELS 3 Xrotation Yrotation Zrotation
						JOINT RightArm
						{
							OFFSET -0.144834 0.000000 0.000000
							CHANNELS 3 Xrotation Yrotation Zrotation
							JOINT RightForeArm
							{
								OFFSET -0.274949 0.000000 0.000000
								CHANNELS 3 Xrotation Yrotation Zrotation
								JOINT RightHand
								{
									OFFSET -0.254725 0.000000 0.000000
									CHANNELS 3 Xrotation Yrotation Zrotation
									JOINT RightHandEnd
									{
										OFFSET -0.068160 0.000000 0.000000
										CHANNELS 3 Xrotation Yrotation Zrotation
										End Site
										{
											OFFSET 0.000000 0.000000 0.000000
										}
									}
									JOINT RightHandThumb1
									{
										OFFSET -0.027264 -0.045440 -0.018176
										CHANNELS 3 Xrotation Yrotation Zrotation
										End Site
										{
											OFFSET 0.000000 0.000000 0.000000
										}
									}
								}
							}
						}
					}
					JOINT LeftShoulder
					{
						OFFSET 0.029161 -0.048602 0.157471
						CHANNELS 3 Xrotation Yrotation Zrotation
						JOINT LeftArm
						{
							OFFSET 0.144834 0.000000 0.000000
							CHANNELS 3 Xrotation Yrotation Zrotation
							JOINT LeftForeArm
							{
								OFFSET 0.274949 0.000000 0.000000
								CHANNELS 3 Xrotation Yrotation Zrotation
								JOINT LeftHand
								{
									OFFSET 0.254725 0.000000 0.000000
									CHANNELS 3 Xrotation Yrotation Zrotation
									JOINT LeftHandEnd
									{
										OFFSET 0.068160 0.000000 0.000000
										CHANNELS 3 Xrotation Yrotation Zrotation
										End Site
										{
											OFFSET 0.000000 0.000000 0.000000
										}
									}
									JOINT LeftHandThumb1
									{
										OFFSET 0.027264 -0.045440 -0.018176
										CHANNELS 3 Xrotation Yrotation Zrotation
										End Site
										{
											OFFSET 0.000000 0.000000 0.000000
										}
									}
								}
							}
						}
					}
				}
			}
		}
	}
	JOINT RightUpLeg
	{
		OFFSET -0.086512 0.000000 -0.025273
		CHANNELS 3 Xrotation Yrotation Zrotation
		JOINT RightLeg
		{
			OFFSET 0.000000 0.000000 -0.433119
			CHANNELS 3 Xrotation Yrotation Zrotation
			JOINT RightFoot
			{
				OFFSET 0.000000 0.000000 -0.404688
				CHANNELS 3 Xrotation Yrotation Zrotation
				JOINT RightToeBase
				{
					OFFSET 0.000000 -0.126496 -0.046041
					CHANNELS 3 Xrotation Yrotation Zrotation
					End Site
					{
						OFFSET 0.000000 0.000000 0.000000
					}
				}
			}
		}
	}
	JOINT LeftUpLeg
	{
		OFFSET 0.086512 0.000000 -0.025273
		CHANNELS 3 Xrotation Yrotation Zrotation
		JOINT LeftLeg
		{
			OFFSET 0.000000 0.000000 -0.433119
			CHANNELS 3 Xrotation Yrotation Zrotation
			JOINT LeftFoot
			{
				OFFSET 0.000000 0.000000 -0.404688
				CHANNELS 3 Xrotation Yrotation Zrotation
				JOINT LeftToeBase
				{
					OFFSET 0.000000 -0.126496 -0.046041
					CHANNELS 3 Xrotation Yrotation Zrotation
					End Site
					{
						OFFSET 0.000000 0.000000 0.000000
					}
				}
			}
		}
	}
}
MOTION
Frames: 8
Frame Time: 0.033333
0.111102 -1.215636 0.901271 0.187800 2.948000 -174.422800 -0.161100 0.620100 -0.031600 0.152700 -0.269400 0.040900 2.630900 -0.511700 1.053400 1.149900 -0.184600 0.462800 -0.077300 1.696900 3.399900 -4.818500 5.294800 3.127800 5.711200 -8.768200 3.819600 49.490700 -37.582900 53.014200 0.000000 0.000000 25.763000 -13.953100 9.149600 -3.087700 0.000000 0.000000 0.000000 0.000000 0.000000 0.000000 11.181400 7.392400 -5.929800 50.219600 25.118700 -57.779700 0.000000 0.000000 -35.095100 -17.412900 -10.356900 1.063500 0.000000 0.000000 0.000000 0.000000 0.000000 0.000000 -4.564700 6.596900 -33.749200 11.785200 0.000000 0.000000 -11.737600 1.614500 -15.375300 4.441900 0.000000 0.000000 -7.131100 -1.904100 11.558100 14.591100 0.000000 0.000000 -6.483800 17.477900 20.554600 -6.485000 0.000000 0.000000 
0.117808 -1.222212 0.900247 0.066500 2.901000 -173.481500 -0.120300 0.335000 0.011300 0.182600 -0.232700 0.041900 2.644200 -0.388200 1.056100 1.174100 -0.136100 0.437600 0.155800 1.765500 3.292800 -4.789800 5.217800 2.954800 5.616100 -8.933700 3.727300 49.092000 -37.551400 52.833800 0.000000 0.000000 26.199100 -13.901900 9.394600 -2.966100 0.000000 0.000000 0.000000 0.000000 0.000000 0.000000 11.221300 7.412100 -5.806800 49.235700 26.265300 -57.061700 0.000000 0.000000 -36.107400 -18.380100 -10.915800 0.761700 0.000000 0.000000 0.000000 0.000000 0.000000 0.000000 -4.376600 5.961700 -35.743800 10.545800 0.000000 0.000000 -11.870700 1.947600 -14.228600 5.048100 0.000000 0.000000 -7.819600 -2.223200 11.059200 14.459400 0.000000 0.000000 -6.168900 17.689300 20.328700 -6.275200 0.000000 0.000000 
0.125219 -1.229982 0.899419 -0.185800 2.467100 -172.256600 -0.115000 -0.247700 0.091400 0.188100 -0.304200 0.034200 2.648300 -0.322100 0.885100 1.187100 -0.049800 0.346300 0.164300 1.856800 3.168400 -4.897600 5.156200 2.706200 5.526000 -9.152800 3.730500 48.486500 -37.735100 52.413900 0.000000 0.000000 26.506800 -14.168700 9.723400 -2.729100 0.000000 0.000000 0.000000 0.000000 0.000000 0.000000 11.183900 7.550800 -5.757200 48.560600 26.996300 -56.502600 0.000000 0.000000 -36.671300 -19.210200 -11.340400 0.526300 0.000000 0.000000 0.000000 0.000000 0.000000 0.000000 -4.291600 4.891400 -38.769400 9.005500 0.000000 0.000000 -11.560500 2.047200 -12.435400 5.312900 0.000000 0.000000 -8.742400 -2.898600 10.596200 14.187100 0.000000 0.000000 -5.720800 17.747700 19.875600 -5.378800 0.000000 0.000000 
0.132443 -1.238664 0.899160 -0.536100 1.903300 -170.920900 -0.154100 -0.862700 0.203100 0.190600 -0.421500 0.016900 2.611200 -0.368200 0.643100 1.185300 0.004200 0.261100 0.101300 1.939300 3.000700 -5.058000 5.093400 2.354900 5.476400 -9.230600 3.812300 47.951500 -37.866300 51.971600 0.000000 0.000000 26.576900 -14.533600 9.995600 -2.486200 0.000000 0.000000 0.000000 0.000000 0.000000 0.000000 11.132400 7.561900 -5.786500 48.349600 27.599900 -56.581100 0.000000 0.000000 -36.446900 -19.482900 -11.596600 0.324000 0.000000 0.000000 0.000000 0.000000 0.000000 0.000000 -4.550900 3.789700 -41.755600 7.690500 0.000000 0.000000 -10.805700 2.029900 -10.838700 5.168400 0.000000 0.000000 -9.688500 -3.571300 10.695500 13.449000 0.000000 0.000000 -4.560700 17.191800 18.808100 -3.694500 0.000000 0.000000 
0.138816 -1.247767 0.899305 -0.901100 1.561900 -169.632600 -0.200300 -1.247700 0.312000 0.215600 -0.472600 0.004000 2.540800 -0.468700 0.456600 1.167800 -0.004800 0.244100 0.050500 1.909200 2.698600 -5.166200 4.990100 1.941900 5.509500 -9.104400 3.871500 47.581500 -37.877900 51.628400 0.000000 0.000000 26.467600 -14.589700 10.097600 -2.445200 0.000000 0.000000 0.000000 0.000000 0.000000 0.000000 11.144400 7.197400 -5.932700 48.658200 28.201300 -57.443900 0.000000 0.000000 -35.553300 -19.125500 -11.634400 0.329700 0.000000 0.000000 0.000000 0.000000 0.000000 0.000000 -5.052000 3.058700 -44.097900 6.730000 0.000000 0.000000 -9.958600 2.058600 -9.808400 4.901900 0.000000 0.000000 -10.490900 -3.838200 11.496000 12.355500 0.000000 0.000000 -3.473700 16.194400 17.395900 -2.855300 0.000000 0.000000 
0.144175 -1.256998 0.899399 -1.170800 1.459400 -168.507500 -0.205800 -1.439000 0.410800 0.263600 -0.458100 0.006100 2.494500 -0.560400 0.334200 1.152900 -0.034200 0.270200 -0.000100 1.738900 2.290500 -5.215800 4.829900 1.568800 5.612500 -8.906500 3.961200 47.251100 -37.773500 51.245100 0.000000 0.000000 26.327500 -14.351700 10.035300 -2.603300 0.000000 0.000000 0.000000 0.000000 0.000000 0.000000 11.219900 6.640800 -6.162700 49.380800 28.302200 -58.653100 0.000000 0.000000 -34.516600 -18.330900 -11.334600 0.709100 0.000000 0.000000 0.000000 0.000000 0.000000 0.000000 -5.549700 2.652800 -46.006300 5.936900 0.000000 0.000000 -9.246300 2.181600 -8.992400 4.732300 0.000000 0.000000 -11.168700 -3.761900 12.658300 11.832500 0.000000 0.000000 -4.325100 15.637900 16.886300 -4.291400 0.000000 0.000000 
0.148344 -1.266238 0.899343 -1.263800 1.464800 -167.594500 -0.163200 -1.551800 0.507100 0.291800 -0.458400 0.007600 2.545800 -0.632800 0.197900 1.162200 -0.048100 0.287400 -0.037900 1.494600 1.906400 -5.208500 4.626400 1.302600 5.700400 -8.853800 4.137300 46.878400 -37.380700 50.692000 0.000000 0.000000 26.122400 -14.249300 9.886000 -2.723200 0.000000 0.000000 0.000000 0.000000 0.000000 0.000000 11.281400 6.317300 -6.390000 50.354400 27.349400 -59.641700 0.000000 0.000000 -33.720200 -17.375100 -10.577500 1.251000 0.000000 0.000000 0.000000 0.000000 0.000000 0.000000 -5.911400 2.412200 -47.771200 5.218700 0.000000 0.000000 -8.574600 2.372700 -8.069700 4.666300 0.000000 0.000000 -11.728100 -3.627900 13.743400 13.060400 0.000000 0.000000 -7.758200 15.668300 18.286100 -7.029400 0.000000 0.000000 
0.150998 -1.275304 0.899366 -1.213000 1.590100 -166.927000 -0.141500 -1.523900 0.580000 0.271400 -0.502700 0.001600 2.685800 -0.717000 0.050300 1.193000 -0.057200 0.286900 0.018000 1.237200 1.617300 -5.076400 4.408600 1.115400 5.674800 -9.046000 4.284000 46.506900 -36.685000 49.987100 0.000000 0.000000 25.735400 -14.389400 9.724900 -2.725800 0.000000 0.000000 0.000000 0.000000 0.000000 0.000000 11.315000 6.342700 -6.526100 51.463500 25.535500 -60.317400 0.000000 0.000000 -33.094000 -16.391100 -9.505600 1.536100 0.000000 0.000000 0.000000 0.000000 0.000000 0.000000 -6.178900 2.400000 -49.217700 4.684200 0.000000 0.000000 -7.857400 2.567200 -7.181300 4.626000 0.000000 0.000000 -12.053200 -3.511400 14.296200 16.527600 0.000000 0.000000 -12.198600 15.067600 21.296500 -8.919100 0.000000 0.000000 
